<?xml version="1.0" standalone="no"?>
<!DOCTYPE svg PUBLIC "-//W3C//DTD SVG 20010904//EN"
 "http://www.w3.org/TR/2001/REC-SVG-20010904/DTD/svg10.dtd">
<svg version="1.0" xmlns="http://www.w3.org/2000/svg"
 width="225.000000pt" height="225.000000pt" viewBox="0 0 225.000000 225.000000"
 preserveAspectRatio="xMidYMid meet">

<g transform="translate(0.000000,225.000000) scale(0.100000,-0.100000)"
fill="#000000" stroke="none">
<path d="M935 2214 c-218 -36 -426 -145 -591 -308 -208 -208 -324 -486 -324
-781 0 -160 45 -356 112 -490 103 -205 293 -396 493 -497 305 -155 695 -155
1000 0 312 157 547 484 594 826 49 352 -66 696 -315 943 -78 77 -197 164 -289
211 -191 96 -458 134 -680 96z m-220 -369 c91 -31 197 -86 307 -161 108 -73
110 -74 133 -56 13 9 26 31 29 48 8 40 44 73 88 80 69 12 127 -71 94 -135 -20
-38 -44 -51 -93 -51 -80 0 -76 -10 59 -142 69 -68 150 -152 180 -187 l55 -64
72 108 c116 173 163 283 165 381 1 120 -104 151 -273 79 -72 -30 -87 -31 -101
-6 -19 37 -11 52 43 76 180 83 325 67 377 -41 55 -112 -3 -298 -170 -548 l-72
-107 32 -46 c33 -52 35 -76 6 -81 -13 -3 -30 9 -52 34 l-32 39 -68 -75 c-63
-69 -159 -163 -258 -252 l-39 -35 56 -41 c163 -121 322 -194 424 -196 56 -1
65 2 90 27 25 24 28 34 27 90 -2 82 -37 177 -66 177 -27 0 -88 62 -88 89 0 30
26 78 49 91 29 15 78 12 106 -6 40 -26 52 -94 22 -132 -6 -8 -2 -35 14 -85 32
-97 34 -223 3 -263 -42 -58 -69 -69 -157 -69 -129 0 -254 51 -451 183 -59 40
-111 72 -115 70 -3 -2 -45 -29 -93 -61 -178 -118 -329 -179 -448 -181 -90 -1
-133 19 -168 80 -63 108 18 356 196 597 l43 57 -65 98 c-77 115 -148 261 -171
352 -34 131 -3 239 79 276 40 19 163 13 231 -11z"/>
<path d="M543 1799 c-91 -26 -89 -156 4 -342 35 -70 89 -160 130 -214 l24 -31
137 137 c75 76 159 156 186 178 l49 41 -79 55 c-187 132 -364 201 -451 176z"/>
<path d="M1068 1438 c-83 -71 -263 -252 -285 -285 -14 -21 -13 -26 2 -50 27
-41 343 -355 355 -351 25 8 203 174 286 267 l94 103 -42 52 c-56 68 -315 326
-327 326 -6 0 -43 -28 -83 -62z"/>
<path d="M622 942 c-152 -229 -196 -389 -127 -458 46 -46 168 -28 319 48 82
41 247 147 245 157 0 3 -41 41 -91 85 -49 43 -128 122 -175 175 -47 53 -88 97
-92 99 -4 1 -39 -46 -79 -106z"/>
</g>
</svg>
