<?xml version="1.0" standalone="no"?>
<!DOCTYPE svg PUBLIC "-//W3C//DTD SVG 20010904//EN"
 "http://www.w3.org/TR/2001/REC-SVG-20010904/DTD/svg10.dtd">
<svg version="1.0" xmlns="http://www.w3.org/2000/svg"
 width="400.000000pt" height="420.000000pt" viewBox="0 0 400.000000 420.000000"
 preserveAspectRatio="xMidYMid meet">

<g transform="translate(0.000000,420.000000) scale(0.100000,-0.100000)"
fill="#000000" stroke="none">
<path d="M1891 4180 c-99 -26 -150 -58 -249 -154 -133 -129 -228 -295 -323
-566 -26 -74 -52 -134 -58 -133 -127 29 -284 55 -388 65 -400 36 -680 -97
-748 -357 -20 -78 -19 -133 4 -230 49 -202 191 -440 384 -642 l60 -62 -72 -77
c-138 -148 -262 -331 -322 -476 -37 -90 -69 -218 -69 -278 0 -91 42 -207 99
-272 21 -25 29 -47 34 -91 11 -107 81 -219 171 -272 23 -13 70 -32 105 -41
110 -28 222 6 314 95 27 25 57 63 68 83 15 30 26 38 56 43 21 4 100 18 176 32
76 14 139 24 141 22 1 -2 22 -60 46 -129 86 -251 180 -419 306 -550 100 -103
164 -143 272 -171 l82 -20 82 20 c108 28 172 68 272 171 127 132 215 292 312
565 23 66 47 119 53 118 347 -79 577 -90 775 -38 229 60 376 231 376 435 0
201 -169 522 -403 767 l-59 62 72 78 c191 207 323 430 371 628 23 97 24 152 4
230 -45 172 -173 284 -386 335 -171 41 -358 36 -616 -15 -67 -14 -127 -25
-131 -25 -5 0 -26 47 -46 105 l-36 105 24 48 c40 79 49 143 31 220 -20 85 -51
138 -115 195 -67 60 -144 90 -234 90 -60 0 -76 4 -115 29 -45 28 -143 62 -211
72 -19 3 -68 -4 -109 -14z m146 -206 c21 -6 21 -7 -12 -67 -48 -89 -59 -152
-40 -233 19 -81 36 -115 87 -170 55 -59 92 -81 181 -103 67 -18 81 -18 132 -6
l57 13 19 -43 c11 -24 22 -56 25 -72 5 -28 5 -28 -123 -72 -70 -24 -185 -68
-255 -98 l-128 -54 -127 54 c-71 30 -183 74 -251 97 l-124 43 7 36 c11 56 81
236 131 335 129 256 280 378 421 340z m363 -109 c94 -49 92 -203 -4 -249 -163
-77 -290 146 -140 245 35 23 104 25 144 4z m-1415 -700 c100 -14 223 -40 232
-48 2 -3 -7 -63 -21 -133 -13 -71 -32 -191 -42 -266 l-18 -138 -57 -40 c-59
-42 -203 -157 -304 -245 l-57 -50 -56 60 c-138 149 -279 369 -316 494 -24 83
-21 197 7 243 38 63 101 101 201 123 82 18 307 18 431 0z m2418 0 c95 -20 164
-60 199 -114 24 -39 28 -55 28 -121 0 -94 -19 -160 -76 -270 -67 -127 -290
-417 -315 -408 -4 2 -48 37 -96 79 -90 78 -271 221 -298 236 -11 7 -19 46 -31
143 -8 74 -26 195 -40 269 -14 73 -23 136 -20 138 9 9 122 35 210 48 125 18
354 18 439 0z m-1827 -155 c75 -28 140 -53 146 -56 5 -3 -60 -45 -145 -94 -84
-48 -165 -95 -180 -105 -15 -9 -27 -13 -27 -7 0 6 11 77 25 158 14 81 25 149
25 151 0 8 31 -1 156 -47z m988 -47 c21 -123 34 -223 29 -223 -2 0 -61 33
-131 74 -70 41 -151 88 -181 104 -53 30 -54 31 -30 42 57 25 265 99 280 100
12 0 20 -21 33 -97z m-511 -159 c110 -56 360 -199 468 -269 l96 -62 6 -123 c4
-68 7 -181 7 -251 l0 -127 -49 -7 c-133 -18 -254 -121 -292 -247 -17 -54 -20
-85 -16 -133 7 -74 21 -61 -166 -159 l-127 -68 -118 62 c-159 85 -308 171
-423 246 l-97 62 -7 186 c-4 102 -4 270 0 372 l7 186 97 62 c135 88 517 305
539 306 1 0 35 -16 75 -36z m-937 -704 c0 -189 -1 -208 -15 -197 -9 8 -64 53
-123 102 -60 48 -108 91 -108 95 0 6 238 208 246 210 0 0 1 -94 0 -210z m1867
95 c59 -49 106 -92 105 -96 -4 -9 -231 -199 -238 -199 -4 0 -6 92 -6 204 1
182 2 204 16 192 8 -7 64 -52 123 -101z m-2148 -341 c61 -52 153 -126 206
-165 l96 -71 17 -137 c10 -75 28 -192 42 -261 13 -69 24 -128 24 -132 0 -10
-68 -27 -170 -44 -119 -19 -115 -20 -135 34 -12 30 -41 69 -80 109 -53 53 -71
64 -134 84 -117 35 -228 17 -313 -51 -20 -17 -42 -30 -47 -30 -17 0 -13 149 5
211 25 85 97 215 182 329 79 105 178 220 191 220 3 -1 56 -43 116 -96z m2466
39 c85 -93 206 -262 253 -353 57 -111 76 -177 76 -269 0 -62 -4 -83 -23 -115
-29 -46 -92 -90 -161 -112 -69 -22 -308 -30 -433 -15 -109 14 -273 49 -273 59
0 4 9 52 19 107 16 82 24 103 43 114 55 35 126 119 149 177 21 55 29 152 17
216 -2 12 39 54 132 132 74 63 138 115 141 116 4 0 31 -26 60 -57z m-601 -159
c79 -47 82 -180 4 -239 -12 -9 -43 -14 -81 -15 -58 0 -65 2 -97 34 -60 61 -60
141 0 201 31 32 40 35 90 35 34 0 67 -6 84 -16z m-1112 -400 l145 -83 -44 -19
c-77 -33 -259 -95 -264 -90 -5 4 -55 288 -55 310 0 5 16 0 36 -13 20 -12 101
-59 182 -105z m876 -29 c37 -19 75 -35 83 -35 11 0 14 -7 10 -22 -3 -13 -9
-40 -12 -61 -4 -20 -11 -40 -16 -42 -7 -5 -167 50 -265 91 l-38 16 80 44 c43
24 81 44 84 44 3 0 36 -16 74 -35z m-355 -229 c69 -29 181 -73 249 -96 67 -24
122 -47 122 -53 0 -5 -16 -57 -35 -116 -72 -215 -211 -456 -306 -528 -189
-143 -368 -37 -538 318 -54 113 -121 291 -121 323 0 7 37 25 83 41 87 29 292
110 367 144 25 11 47 21 49 21 2 0 61 -24 130 -54z m-1453 -12 c51 -24 74 -63
74 -124 0 -90 -48 -140 -135 -140 -152 0 -199 194 -64 262 43 22 81 23 125 2z"/>
</g>
</svg>
