<?xml version="1.0" standalone="no"?>
<!DOCTYPE svg PUBLIC "-//W3C//DTD SVG 20010904//EN"
 "http://www.w3.org/TR/2001/REC-SVG-20010904/DTD/svg10.dtd">
<svg version="1.0" xmlns="http://www.w3.org/2000/svg"
 width="370.000000pt" height="410.000000pt" viewBox="0 0 370.000000 410.000000"
 preserveAspectRatio="xMidYMid meet">

<g transform="translate(0.000000,410.000000) scale(0.100000,-0.100000)"
fill="#000000" stroke="none">
<path d="M1740 4084 c-76 -21 -134 -57 -213 -133 -129 -124 -237 -318 -324
-583 -26 -79 -48 -145 -49 -147 -2 -1 -51 8 -111 22 -176 42 -258 51 -438 51
-127 0 -187 -4 -239 -17 -378 -95 -461 -406 -216 -812 63 -105 172 -246 263
-341 l69 -74 -76 -81 c-146 -155 -277 -346 -336 -489 -89 -215 -79 -382 31
-512 35 -42 39 -52 39 -101 0 -103 75 -213 179 -261 69 -32 189 -29 256 6 63
33 118 90 144 148 l20 46 98 12 c54 7 147 24 207 37 60 14 110 24 111 22 1 -1
23 -67 49 -147 82 -250 187 -443 312 -571 119 -121 246 -173 367 -151 156 29
295 151 420 367 57 98 127 263 168 398 18 56 33 104 35 106 1 1 51 -8 111 -22
176 -42 258 -51 438 -51 127 0 187 4 239 17 378 95 461 406 216 812 -63 105
-172 246 -263 341 l-69 74 72 77 c265 284 410 568 398 780 -11 186 -130 311
-353 369 -55 15 -106 18 -245 18 -181 0 -294 -14 -454 -55 -43 -11 -79 -19
-80 -17 -2 2 -24 65 -50 141 l-47 138 19 27 c34 49 47 96 47 168 -1 121 -70
225 -184 277 -34 16 -66 22 -126 22 -71 0 -85 4 -121 28 -95 64 -218 88 -314
61z m164 -118 c77 -23 80 -30 40 -83 -53 -69 -67 -109 -68 -193 -1 -63 4 -84
27 -132 48 -98 133 -156 252 -173 35 -5 59 -1 154 26 10 3 25 -28 52 -106 21
-60 35 -112 31 -116 -4 -3 -70 -27 -147 -54 -77 -26 -202 -74 -277 -106 l-138
-59 -137 59 c-76 32 -201 80 -278 106 -77 27 -141 49 -143 51 -6 4 37 141 74
238 117 305 267 499 424 547 40 12 83 10 134 -5z m336 -96 c43 -12 93 -61 114
-112 69 -165 -128 -324 -276 -224 -124 83 -109 265 27 327 45 21 84 23 135 9z
m-1453 -700 c43 -6 135 -22 206 -37 99 -20 127 -30 127 -42 0 -9 -11 -72 -24
-141 -14 -69 -32 -188 -41 -265 -9 -77 -19 -149 -21 -160 -3 -11 -54 -56 -117
-102 -61 -45 -167 -129 -233 -187 l-122 -105 -88 100 c-309 349 -417 645 -296
808 45 60 146 112 260 131 70 11 259 11 349 0z m2503 -15 c126 -39 204 -102
228 -184 29 -93 5 -226 -64 -363 -64 -127 -208 -320 -317 -427 l-45 -44 -119
102 c-65 56 -168 139 -229 184 l-110 82 -18 155 c-9 85 -28 214 -41 285 -14
72 -25 137 -25 146 0 17 126 50 289 75 119 18 377 12 451 -11z m-1880 -142
c155 -56 270 -104 270 -112 0 -4 -21 -17 -47 -30 -70 -33 -296 -162 -387 -220
-44 -28 -81 -49 -83 -48 -7 7 55 385 73 450 6 21 0 22 174 -40z m1030 5 c19
-92 48 -270 56 -347 l7 -75 -34 21 c-180 110 -286 172 -377 220 -122 64 -117
61 -110 68 15 15 407 163 435 164 6 1 16 -23 23 -51z m-527 -219 c126 -64 370
-204 493 -284 l111 -72 6 -153 c8 -186 9 -368 1 -396 -5 -18 -15 -22 -72 -26
-120 -9 -230 -90 -266 -195 -18 -52 -21 -158 -6 -197 9 -24 5 -27 -108 -89
-64 -36 -145 -79 -180 -96 l-63 -32 -127 67 c-168 88 -313 172 -444 256 -97
63 -108 73 -115 106 -9 48 -9 676 0 724 7 34 18 43 140 121 73 46 175 108 227
137 86 49 311 169 318 170 1 0 39 -19 85 -41z m-896 -748 c0 -271 -2 -299 -16
-291 -26 14 -230 180 -290 236 l-56 52 20 22 c36 40 327 280 340 280 1 0 2
-135 2 -299z m1753 204 c123 -98 230 -194 230 -206 0 -10 -213 -194 -272 -236
-35 -23 -40 -24 -60 -11 -22 15 -22 18 -24 281 -1 242 0 265 15 257 9 -5 59
-43 111 -85z m-1853 -578 c63 -46 114 -91 117 -102 2 -11 12 -83 21 -160 9
-77 27 -196 41 -265 13 -69 24 -132 24 -141 0 -12 -24 -21 -97 -37 -186 -41
-271 -50 -277 -29 -52 180 -190 276 -356 245 -70 -13 -102 -30 -162 -86 -47
-44 -50 -45 -61 -27 -26 43 -36 83 -36 146 -2 167 118 393 343 648 l88 100
122 -105 c66 -58 172 -142 233 -187z m2344 104 c250 -305 332 -571 221 -720
-109 -147 -439 -182 -843 -88 -53 12 -98 27 -99 32 -1 10 37 224 46 256 2 9
27 30 54 47 94 58 147 166 137 276 -3 33 -9 70 -12 82 -5 17 9 33 82 91 48 39
124 102 168 141 l80 71 53 -57 c29 -31 79 -90 113 -131z m-708 -47 c77 -39
111 -99 105 -186 -7 -101 -82 -168 -186 -168 -60 0 -95 15 -133 57 -40 43 -52
72 -52 128 0 75 47 148 113 174 39 15 118 13 153 -5z m-1208 -344 c66 -40 171
-100 234 -133 l113 -60 -91 -38 c-118 -49 -353 -131 -359 -125 -9 10 -48 220
-76 425 l-7 43 33 -20 c18 -11 87 -52 153 -92z m926 -56 c19 -24 102 -63 148
-70 29 -5 41 -11 41 -23 0 -19 -39 -203 -43 -208 -10 -9 -437 153 -437 166 0
4 21 18 48 30 26 12 85 44 132 71 47 27 88 49 91 49 4 1 12 -6 20 -15z m-304
-263 c76 -32 201 -80 278 -106 77 -27 141 -49 143 -50 1 -2 -18 -65 -43 -141
-80 -247 -218 -489 -323 -572 -106 -84 -211 -100 -309 -49 -109 56 -207 179
-304 380 -52 109 -148 373 -138 381 2 2 49 18 104 36 104 33 299 110 395 154
30 13 56 25 57 25 2 1 65 -25 140 -58z m-1437 -16 c34 -18 77 -64 89 -98 25
-66 4 -164 -46 -209 -51 -46 -148 -61 -206 -32 -75 38 -110 92 -110 170 0 141
149 233 273 169z"/>
</g>
</svg>
